<?xml version="1.0" encoding="utf-8"?>
<!-- Generator: Adobe Illustrator 17.0.0, SVG Export Plug-In . SVG Version: 6.00 Build 0)  -->
<!DOCTYPE svg PUBLIC "-//W3C//DTD SVG 1.1//EN" "http://www.w3.org/Graphics/SVG/1.1/DTD/svg11.dtd">
<svg version="1.1" id="Layer_1" xmlns="http://www.w3.org/2000/svg" xmlns:xlink="http://www.w3.org/1999/xlink" x="0px" y="0px"
	 width="31.939px" height="16.647px" viewBox="0 0 31.939 16.647" enable-background="new 0 0 31.939 16.647" xml:space="preserve">
<g>
	<path fill="#C2E3CB" d="M31.939,16.647h-4.514V0.027h4.514V16.647z"/>
</g>
<path fill="#C2E3CB" d="M8.299,0.005C3.716,0.005,0,3.722,0,8.305c0,4.585,3.716,8.301,8.299,8.301c4.587,0,8.301-3.716,8.301-8.301
	C16.6,3.722,12.886,0.005,8.299,0.005z M8.299,3.676c0.843,0,1.635,0.229,2.314,0.627l-6.315,6.311
	C3.903,9.934,3.671,9.15,3.671,8.305C3.671,5.749,5.747,3.676,8.299,3.676z M8.299,12.938c-0.836,0-1.62-0.225-2.298-0.616
	l6.311-6.315c0.393,0.676,0.62,1.46,0.62,2.298C12.932,10.859,10.853,12.938,8.299,12.938z"/>
<g>
	<polygon fill="#C2E3CB" points="21.599,0 19.761,1.83 19.761,16.62 24.275,16.62 24.275,0 	"/>
</g>
</svg>
