<?xml version="1.0" encoding="utf-8"?>
<!-- Generator: Adobe Illustrator 17.0.0, SVG Export Plug-In . SVG Version: 6.00 Build 0)  -->
<!DOCTYPE svg PUBLIC "-//W3C//DTD SVG 1.1//EN" "http://www.w3.org/Graphics/SVG/1.1/DTD/svg11.dtd">
<svg version="1.1" id="Layer_1" xmlns="http://www.w3.org/2000/svg" xmlns:xlink="http://www.w3.org/1999/xlink" x="0px" y="0px"
	 width="131.93px" height="16.657px" viewBox="0 0 131.93 16.657" enable-background="new 0 0 131.93 16.657" xml:space="preserve">
<path fill="#555759" d="M26.678,8.32c0-3.009,1.481-6.852,5.741-6.852c0.666,0,1.258,0.102,1.794,0.269l0.828-1.356
	c-0.834-0.223-1.711-0.348-2.622-0.348c-5.092,0-9.259,3.751-9.259,8.287c0,2.777,1.537,5.244,3.877,6.759l1.147-1.881
	C27.116,11.83,26.678,9.969,26.678,8.32z"/>
<path fill="#555759" d="M36.845,1.054l-0.005,2.599c0.967,1.354,1.364,3.119,1.364,4.667c0,3.055-1.481,6.851-5.786,6.851
	c-0.941,0-1.739-0.193-2.423-0.514l-0.002,1.695c0.775,0.19,1.586,0.301,2.425,0.301c5.091,0,9.258-3.749,9.258-8.332
	C41.677,5.209,39.717,2.47,36.845,1.054z"/>
<path fill="#555759" d="M13.502,16.054v-0.881c2.598,0,3.016-0.604,3.016-3.898V4.501l-5.661,12.156h-0.789L4.455,4.594v6.681
	c0,3.294,0.417,3.898,3.016,3.898v0.881H0v-0.881c2.598,0,3.016-0.604,3.016-3.898V5.336c0-3.295-0.417-3.852-3.016-3.852V0.603
	h5.707l5.521,11.832L16.75,0.603h5.614v0.881c-2.598,0-3.016,0.557-3.016,3.852v5.939c0,3.294,0.417,3.898,3.016,3.898v0.881H13.502
	z"/>
<path fill="#555759" d="M42.143,15.173c2.598,0,3.016-0.604,3.016-3.898V5.336c0-3.295-0.417-3.852-3.016-3.852V0.603h8.305
	c6.635,0,9.512,3.48,9.512,7.702c0,4.222-2.877,7.748-9.512,7.748h-8.305V15.173z M50.588,1.995c-0.186,0-2.228,0-2.228,0v10.068
	c0,2.134,0.233,2.552,1.903,2.552h0.325c4.825,0,5.706-3.527,5.706-6.357C56.295,5.521,55.413,1.995,50.588,1.995z"/>
<path fill="#555759" d="M111.654,4.965h-0.742l-0.233-0.882c-0.417-1.531-0.928-2.087-4.222-2.087h-2.552v5.196
	c3.619,0,3.897-0.324,3.897-2.738h0.881v6.914h-0.881c0-2.413-0.278-2.738-3.897-2.738v2.134c0,3.295,0.417,3.852,2.83,3.852h0.65
	c3.294,0,3.805-0.557,4.222-2.088l0.233-0.835h0.695l-0.278,4.362H97.688v-0.881c2.598,0,3.016-0.604,3.016-3.898V5.336
	c0-3.295-0.417-3.852-3.016-3.852V0.603h13.641L111.654,4.965z"/>
<path fill="#555759" d="M119.402,1.995c-3.341,0-3.852,0.556-4.222,2.087l-0.233,0.882h-0.789l0.372-4.362h17.075l0.325,4.362
	h-0.744l-0.231-0.882c-0.417-1.531-0.881-2.087-4.222-2.087h-2.089v9.28c0,3.294,0.419,3.898,3.017,3.898v0.881h-9.188v-0.881
	c2.552,0,3.016-0.604,3.016-3.898v-9.28H119.402z"/>
<path fill="#555759" d="M94.114,5.475h0.973V0h-0.881c-0.139,0.557-0.37,1.067-0.603,1.252c-0.452-0.373-1.077-0.71-1.812-0.934
	v1.513C93.147,2.456,93.874,3.862,94.114,5.475z"/>
<path fill="#555759" d="M93.372,7.516l-2.553-1.252c-2.227-1.021-3.2-1.67-3.2-2.877c0-1.069,1.027-1.776,2.205-1.881l0.84-1.419
	c-0.221-0.024-0.446-0.041-0.679-0.041c-2.877,0-4.964,1.902-4.964,4.13c0,2.041,1.391,3.573,3.247,4.454l2.645,1.253
	c1.902,0.881,2.969,1.809,2.969,3.016c0,1.392-1.206,2.227-2.691,2.227c-2.738,0-4.872-1.809-5.244-4.872h-0.927v6.403h0.881
	c0.092-0.649,0.509-1.345,0.742-1.577c0.695,0.603,2.32,1.577,4.175,1.577c3.109,0,5.661-2.041,5.661-4.965
	C96.48,10.301,95.599,8.584,93.372,7.516z"/>
<path fill="#555759" d="M69.199,14.616c-2.413,0-2.831-0.557-2.831-3.852V8.63c3.62,0,3.898,0.325,3.898,2.738h0.881V4.454h-0.881
	c0,2.413-0.278,2.738-3.898,2.738V1.995h2.553c3.294,0,3.805,0.556,4.222,2.087l0.231,0.882h0.744l-0.325-4.362H60.151v0.881
	c2.598,0,3.015,0.557,3.015,3.852v5.939c0,3.294-0.418,3.898-3.015,3.898v0.881h8.801l0.852-1.438H69.199z"/>
<path fill="#555759" d="M74.999,11.692h-0.697l-0.231,0.835c-0.354,1.3-0.783,1.896-2.917,2.047v1.48h3.567L74.999,11.692z"/>
</svg>
